<svg width="64" height="64" viewBox="0 0 64 64" fill="none" xmlns="http://www.w3.org/2000/svg">
  <rect x="6" y="6" width="48" height="48" fill="#7C3AED" stroke="#0F172A" stroke-width="5"/>
  <path d="M40.5 22.5C38.5 19.8 35.3 18.5 31 18.5C25.8 18.5 22.2 21 22.2 25C22.2 28.7 25.1 30.5 30.6 31.6C35.4 32.5 36.9 33.4 36.9 35.6C36.9 37.7 35 39.1 31.7 39.1C28.3 39.1 25.7 37.8 23.6 35.3L19.5 39.1C22.3 42.8 26.3 44.5 31.6 44.5C38.2 44.5 42.8 41.2 42.8 35.5C42.8 30.6 39.7 28.4 32.7 27.1C29 26.4 28.1 25.7 28.1 24.3C28.1 22.8 29.5 21.9 31.7 21.9C34.3 21.9 36.1 22.9 37.7 25L40.5 22.5Z" fill="#F8FAFC"/>
  <rect x="10" y="54" width="48" height="5" fill="#0F172A"/>
  <rect x="54" y="10" width="5" height="49" fill="#0F172A"/>
</svg>
